<svg id="Layer_1" data-name="Layer 1" xmlns="http://www.w3.org/2000/svg" viewBox="0 0 846.89 717.17"><defs><style>.cls-1{fill:#6bbb82;}</style></defs><path class="cls-1" d="M185,428.16c-14-54.67,57-89.85,92.7-45.87L401.85,535c21.26,26.15,61.59,26.1,82.79-.11L635.57,348.28c39.17-48.43,116.13-1.34,89.51,54.79-7.68,16.19-16.37,32.88-25.71,49.69-15.45,27.82-4.39,53.9,15.47,67.86,22.53,15.84,56.38,16.07,75.7-14.45C893.69,343.19,833,147.47,783.65,39c-17.28-38-70.32-41.91-93.06-6.83l-213,328.55c-21.07,32.5-69.29,32.1-89.8-.74L178.53,24.87C157.81-8.3,109-8.28,88.25,24.88c-298.91,477.75,257.38,666,257.38,666S205.3,507.3,185,428.16Z"/></svg>